<svg width="360" height="390" viewBox="0 0 360 390" fill="none" xmlns="http://www.w3.org/2000/svg">
<g filter="url(#filter0_f_11_5749)">
<path d="M129.391 285.784C89.3864 263.405 48.9943 221.048 32.6998 219.109C3.52567 215.638 7.79209 295.94 38.6458 324.636C67.5976 351.564 268.563 379.131 219.248 324.636C193.011 295.644 163.437 304.831 129.391 285.784Z" fill="#0014FF"/>
</g>
<g filter="url(#filter1_f_11_5749)">
<path d="M109.268 303.547C76.1794 284.598 42.771 248.734 29.2938 247.092C5.16375 244.153 8.69253 312.146 34.2117 336.444C58.1579 359.244 224.377 382.585 183.588 336.444C161.887 311.896 137.427 319.674 109.268 303.547Z" fill="#8020EF"/>
</g>
<g filter="url(#filter2_f_11_5749)">
<path d="M97.8718 357.765C102.075 354.08 66.2235 320.382 44.7933 306.624C23.363 292.866 29.5723 318.478 48.3228 333.899C63.9292 346.734 93.6687 361.449 97.8718 357.765Z" fill="#FF2CDF"/>
<path d="M97.8718 357.765C102.075 354.08 66.2235 320.382 44.7933 306.624C23.363 292.866 29.5723 318.478 48.3228 333.899C63.9292 346.734 93.6687 361.449 97.8718 357.765Z" stroke="#FCA9C7" stroke-width="32.8607"/>
</g>
<defs>
<filter id="filter0_f_11_5749" x="-192.38" y="13.6203" width="624.759" height="547.759" filterUnits="userSpaceOnUse" color-interpolation-filters="sRGB">
<feFlood flood-opacity="0" result="BackgroundImageFix"/>
<feBlend mode="normal" in="SourceGraphic" in2="BackgroundImageFix" result="shape"/>
<feGaussianBlur stdDeviation="102.69" result="effect1_foregroundBlur_11_5749"/>
</filter>
<filter id="filter1_f_11_5749" x="-233.456" y="0.544403" width="669.911" height="608.911" filterUnits="userSpaceOnUse" color-interpolation-filters="sRGB">
<feFlood flood-opacity="0" result="BackgroundImageFix"/>
<feBlend mode="normal" in="SourceGraphic" in2="BackgroundImageFix" result="shape"/>
<feGaussianBlur stdDeviation="123.228" result="effect1_foregroundBlur_11_5749"/>
</filter>
<filter id="filter2_f_11_5749" x="-108.386" y="163.038" width="346.251" height="334.964" filterUnits="userSpaceOnUse" color-interpolation-filters="sRGB">
<feFlood flood-opacity="0" result="BackgroundImageFix"/>
<feBlend mode="normal" in="SourceGraphic" in2="BackgroundImageFix" result="shape"/>
<feGaussianBlur stdDeviation="61.6139" result="effect1_foregroundBlur_11_5749"/>
</filter>
</defs>
</svg>
