<svg width="60" height="60" viewBox="0 0 60 60" fill="none" xmlns="http://www.w3.org/2000/svg">
<rect width="60" height="60" fill="white"/>
<path d="M27.6797 44.0469C23.1016 43.625 19.7422 42.25 17.6016 39.9219C15.4609 37.5938 14.3906 34.6641 14.3906 31.1328C14.3906 27.3203 15.4844 24.2734 17.6719 21.9922C19.8594 19.6953 23.1953 18.3438 27.6797 17.9375V14.0469H31.3594V17.9375C35.9375 18.3594 39.2969 19.7344 41.4375 22.0625C43.5938 24.3906 44.6719 27.3125 44.6719 30.8281C44.6719 34.6562 43.5703 37.7188 41.3672 40.0156C39.1797 42.2969 35.8438 43.6406 31.3594 44.0469V47.9609H27.6797V44.0469ZM31.3594 41.0938C37.4375 40.3125 40.4766 36.8984 40.4766 30.8516C40.4766 25.0078 37.4375 21.6875 31.3594 20.8906V41.0938ZM27.6797 20.8906C21.6172 21.6406 18.5859 25.0547 18.5859 31.1328C18.5859 36.9766 21.6172 40.2969 27.6797 41.0938V20.8906Z" fill="url(#paint0_linear_267_15)"/>
<defs>
<linearGradient id="paint0_linear_267_15" x1="30" y1="15" x2="30" y2="45" gradientUnits="userSpaceOnUse">
<stop stop-color="#704EF4"/>
<stop offset="1" stop-color="#FF2CDF"/>
</linearGradient>
</defs>
</svg>
